<?xml version="1.0" encoding="UTF-8"?>
<svg width="67.733mm" height="67.733mm" version="1.1" viewBox="0 0 67.733 67.733" xmlns="http://www.w3.org/2000/svg">
 <g transform="translate(-70.908 -114.56)">
  <rect x="70.908" y="114.56" width="67.733" height="67.733" rx="15.875" fill="#512bd4" stroke-width=".26458"/>
  <g transform="matrix(.41259 0 0 .41259 61.477 93.026)" fill-rule="evenodd" stroke-linecap="square">
   <path d="m109.71 183.41q-2.3299 0.96649-4.2362 1.8122-1.8639 0.84567-4.914 1.7719-2.5841 0.76513-5.6341 1.2886-3.0077 0.56377-6.6508 0.56377-6.8626 0-12.497-1.8122-5.5918-1.8524-9.7432-5.7586-4.0667-3.8257-6.3543-9.7051-2.2875-5.9197-2.2875-13.732 0-7.4097 2.2028-13.249 2.2028-5.8392 6.3543-9.8662 4.0244-3.9062 9.7009-5.96 5.7188-2.0538 12.666-2.0538 5.0834 0 10.124 1.1678 5.0834 1.1678 11.268 4.1076v9.4635h-0.63543q-5.2105-4.1478-10.336-6.0405-5.1258-1.8927-10.972-1.8927-4.7869 0-8.6418 1.49-3.8126 1.4497-6.8203 4.5505-2.923 3.0203-4.5751 7.6513-1.6098 4.5908-1.6098 10.631 0 6.3224 1.7792 10.873 1.8216 4.5505 4.6598 7.4097 2.9653 2.98 6.905 4.4297 3.982 1.4094 8.3876 1.4094 6.0577 0 11.353-1.9732 5.2952-1.9733 9.9127-5.9197h0.59307z" fill="#fff" stroke-width=".99908" style="paint-order:stroke markers fill;white-space:pre" aria-label="C"/>
   <path d="m127.14 148.75h-0.24269q-1.0193-0.2745-1.99-0.3843-0.94648-0.13723-2.257-0.13723-2.1114 0-4.0772 1.0706-1.9658 1.0431-3.786 2.7176v21.768h-4.5626v-30.662h4.5626v4.5294q2.7181-2.4706 4.781-3.4862 2.0871-1.0431 4.2471-1.0431 1.1892 0 1.7231 0.0823 0.53391 0.0549 1.6017 0.24705zm25.351 10.239h-19.973q0 2.8274 0.75233 4.9411 0.75233 2.0862 2.0628 3.4313 1.262 1.3176 2.9851 1.9764 1.7474 0.65883 3.8345 0.65883 2.7667 0 5.5576-1.2353 2.8152-1.2627 4.0044-2.4706h0.2427v5.6274q-2.3056 1.098-4.7082 1.8392-2.4026 0.74116-5.0479 0.74116-6.7468 0-10.533-4.1176-3.786-4.145-3.786-11.749 0-7.5215 3.6161-11.941 3.6403-4.4196 9.562-4.4196 5.4848 0 8.4456 3.6235 2.9851 3.6235 2.9851 10.294zm-4.4412-3.9529q-0.0242-4.0627-1.8202-6.2862-1.7716-2.2235-5.412-2.2235-3.6646 0-5.8488 2.4431-2.1599 2.4431-2.4512 6.0666z" fill="#fff" stroke-width=".62434" style="paint-order:stroke markers fill;white-space:pre" aria-label="re"/>
   <path d="m86.727 147.02h2.1449c5.0534 0 9.1217 4.0683 9.1217 9.1217v3.618c0 5.0534-4.0683 9.1217-9.1217 9.1217h-2.1449c-5.0534 0-9.1217-4.0683-9.1217-9.1217v-3.618c0-5.0534 4.0683-9.1217 9.1217-9.1217z" fill="#bd30af" stroke-width=".51093" style="paint-order:stroke markers fill"/>
  </g>
  <path d="m87.165 142.15h-1.3679l-0.94652-3.0176h-4.175l-0.94652 3.0176h-1.3031l3.5138-10.827h1.7115zm-2.7099-4.2537-1.6921-5.3153-1.6985 5.3153zm10.688 1.1634q0 0.6326-0.2658 1.2507-0.25932 0.61805-0.73259 1.0471-0.51863 0.46537-1.2123 0.72714-0.68721 0.26176-1.6596 0.26176-1.0438 0-1.8801-0.21813-0.82983-0.21815-1.6921-0.64716v-1.8033h0.0908q0.73258 0.68352 1.6921 1.0544 0.95947 0.37084 1.8023 0.37084 1.1929 0 1.8541-0.50172 0.66776-0.50173 0.66776-1.3379 0-0.71987-0.31768-1.0616-0.31118-0.34175-0.953-0.53081-0.48622-0.14543-1.0567-0.23996-0.56402-0.0945-1.1994-0.23995-1.2836-0.3054-1.906-1.0398-0.61588-0.74168-0.61588-1.9269 0-1.3598 1.0243-2.225 1.0243-0.87255 2.5997-0.87255 1.0178 0 1.8671 0.21813 0.84928 0.21814 1.5041 0.53808v1.7015h-0.0908q-0.55105-0.52353-1.4522-0.86529-0.89464-0.34901-1.8347-0.34901-1.0308 0-1.6596 0.4799-0.62238 0.47991-0.62238 1.2361 0 0.67623 0.31119 1.0616 0.31119 0.38538 1.0956 0.58898 0.41492 0.10179 1.1799 0.24721 0.76499 0.14543 1.2966 0.29814 1.0762 0.31993 1.6207 0.96709 0.54457 0.64714 0.54457 1.8106zm7.939-4.4646q0 0.71987-0.22691 1.3379-0.22042 0.61079-0.62236 1.0616-0.49919 0.55989-1.1799 0.84348-0.6807 0.27631-1.718 0.27631h-1.2836v4.0356h-1.2836v-10.827h2.6191q0.86873 0 1.4716 0.16724 0.60292 0.15997 1.0697 0.50899 0.55105 0.41447 0.84927 1.0325 0.3047 0.61806 0.3047 1.5633zm-1.3355 0.0363q0-0.55989-0.17505-0.97436-0.17503-0.41446-0.53161-0.67623-0.31118-0.22542-0.71312-0.31994-0.39546-0.10178-1.0049-0.10178h-1.2707v4.3264h1.0827q0.77795 0 1.2642-0.1527 0.48622-0.15997 0.79092-0.50173 0.30469-0.34902 0.42787-0.73441 0.12967-0.38536 0.12967-0.86528zm2.5387 7.5186h-1.5494v-2.0723h1.5494zm9.8644 0h-1.5883l-4.577-9.6854v9.6854h-1.1994v-10.827h1.9903l4.175 8.8419v-8.8419h1.1994zm8.4901 0h-6.3598v-10.827h6.3598v1.2798h-5.0762v2.9667h5.0762v1.2798h-5.0762v4.021h5.0762zm8.4836-9.5472h-3.449v9.5472h-1.2836v-9.5472h-3.4489v-1.2798h8.1815z" fill="#fff" fill-rule="evenodd" stroke-linecap="square" stroke-width=".16608" style="paint-order:stroke markers fill" aria-label="ASP.NET"/>
 </g>
</svg>
