<?xml version="1.0" encoding="UTF-8"?>
<svg width="67.733mm" height="67.733mm" version="1.1" viewBox="0 0 67.733 67.733" xmlns="http://www.w3.org/2000/svg">
 <g transform="translate(-70.908 -114.56)">
  <rect x="70.908" y="114.56" width="67.733" height="67.733" rx="15.875" fill="#512bd4" stroke-width=".26458"/>
  <g transform="matrix(.41259 0 0 .41259 61.477 97.526)" fill-rule="evenodd" stroke-linecap="square">
   <path d="m109.71 183.41q-2.3299 0.96649-4.2362 1.8122-1.8639 0.84567-4.914 1.7719-2.5841 0.76513-5.6341 1.2886-3.0077 0.56377-6.6508 0.56377-6.8626 0-12.497-1.8122-5.5918-1.8524-9.7432-5.7586-4.0667-3.8257-6.3543-9.7051-2.2875-5.9197-2.2875-13.732 0-7.4097 2.2028-13.249 2.2028-5.8392 6.3543-9.8662 4.0244-3.9062 9.7009-5.96 5.7188-2.0538 12.666-2.0538 5.0834 0 10.124 1.1678 5.0834 1.1678 11.268 4.1076v9.4635h-0.63543q-5.2105-4.1478-10.336-6.0405-5.1258-1.8927-10.972-1.8927-4.7869 0-8.6418 1.49-3.8126 1.4497-6.8203 4.5505-2.923 3.0203-4.5751 7.6513-1.6098 4.5908-1.6098 10.631 0 6.3224 1.7792 10.873 1.8216 4.5505 4.6598 7.4097 2.9653 2.98 6.905 4.4297 3.982 1.4094 8.3876 1.4094 6.0577 0 11.353-1.9732 5.2952-1.9733 9.9127-5.9197h0.59307z" fill="#fff" stroke-width=".99908" style="paint-order:stroke markers fill;white-space:pre" aria-label="C"/>
   <path d="m127.14 148.75h-0.24269q-1.0193-0.2745-1.99-0.3843-0.94648-0.13723-2.257-0.13723-2.1114 0-4.0772 1.0706-1.9658 1.0431-3.786 2.7176v21.768h-4.5626v-30.662h4.5626v4.5294q2.7181-2.4706 4.781-3.4862 2.0871-1.0431 4.2471-1.0431 1.1892 0 1.7231 0.0823 0.53391 0.0549 1.6017 0.24705zm25.351 10.239h-19.973q0 2.8274 0.75233 4.9411 0.75233 2.0862 2.0628 3.4313 1.262 1.3176 2.9851 1.9764 1.7474 0.65883 3.8345 0.65883 2.7667 0 5.5576-1.2353 2.8152-1.2627 4.0044-2.4706h0.2427v5.6274q-2.3056 1.098-4.7082 1.8392-2.4026 0.74116-5.0479 0.74116-6.7468 0-10.533-4.1176-3.786-4.145-3.786-11.749 0-7.5215 3.6161-11.941 3.6403-4.4196 9.562-4.4196 5.4848 0 8.4456 3.6235 2.9851 3.6235 2.9851 10.294zm-4.4412-3.9529q-0.0242-4.0627-1.8202-6.2862-1.7716-2.2235-5.412-2.2235-3.6646 0-5.8488 2.4431-2.1599 2.4431-2.4512 6.0666z" fill="#fff" stroke-width=".62434" style="paint-order:stroke markers fill;white-space:pre" aria-label="re"/>
   <path d="m86.727 147.02h2.1449c5.0534 0 9.1217 4.0683 9.1217 9.1217v3.618c0 5.0534-4.0683 9.1217-9.1217 9.1217h-2.1449c-5.0534 0-9.1217-4.0683-9.1217-9.1217v-3.618c0-5.0534 4.0683-9.1217 9.1217-9.1217z" fill="#bd30af" stroke-width=".51093" style="paint-order:stroke markers fill"/>
  </g>
  <g transform="translate(-.55833 -108.9)" fill="#fff" stroke-width=".26458">
   <path d="m77.83 254.5c-0.59179 0-1.0948-0.19341-1.5091-0.58049-0.41426-0.39714-0.6214-0.86863-0.6214-1.4147 0-0.55589 0.20714-1.0324 0.6214-1.4296 0.41426-0.39687 0.91728-0.59557 1.5091-0.59557 0.60166 0 1.1096 0.1987 1.5239 0.59557 0.4241 0.39714 0.63616 0.87366 0.63616 1.4296 0 0.5461-0.21206 1.0176-0.63616 1.4147-0.41428 0.38708-0.92223 0.58049-1.5239 0.58049z"/>
   <path d="m101.49 254.17h-3.8466l-10.134-15.695c-0.25643-0.39714-0.4686-0.80936-0.63619-1.2361h-0.08882c0.07892 0.45667 0.11838 1.4346 0.11838 2.9334v13.997h-3.4029v-21.353h4.0982l9.7944 15.323c0.41428 0.63553 0.68048 1.0721 0.79902 1.3105h0.059c-0.09843-0.56594-0.1479-1.5237-0.1479-2.8742v-13.759h3.388z"/>
   <path d="m118.06 254.17h-11.91v-21.353h11.437v3.008h-7.9153v6.0455h7.294v2.993h-7.294v6.3138h8.3886z"/>
   <path d="m134.99 235.83h-6.0955v18.345h-3.5213v-18.345h-6.0806v-3.008h15.697z"/>
  </g>
 </g>
</svg>
